<svg xmlns="http://www.w3.org/2000/svg" viewBox="0 0 220 220" fill="none"><defs><linearGradient id="g" gradientUnits="userSpaceOnUse" x1="22" y1="0" x2="44" y2="220"><stop offset="0" stop-color="#8a5f22"/><stop offset=".2" stop-color="#c99433"/><stop offset=".4" stop-color="#f1d791"/><stop offset=".5" stop-color="#fff6dc"/><stop offset=".62" stop-color="#e6c169"/><stop offset=".8" stop-color="#b5852f"/><stop offset="1" stop-color="#7a521d"/></linearGradient><linearGradient id="gv" gradientUnits="userSpaceOnUse" x1="0" y1="0" x2="0" y2="220"><stop offset="0" stop-color="#8a5f22"/><stop offset=".2" stop-color="#c99433"/><stop offset=".4" stop-color="#f1d791"/><stop offset=".5" stop-color="#fff6dc"/><stop offset=".62" stop-color="#e6c169"/><stop offset=".8" stop-color="#b5852f"/><stop offset="1" stop-color="#7a521d"/></linearGradient><filter id="d" x="-60%" y="-60%" width="220%" height="220%"><feDropShadow dx="0" dy="2.4" stdDeviation="2.6" flood-color="#241505" flood-opacity="0.5"/></filter><filter id="dsoft" x="-80%" y="-80%" width="260%" height="260%"><feDropShadow dx="0" dy="4" stdDeviation="5" flood-color="#241505" flood-opacity="0.38"/></filter></defs><g stroke="url(#g)" stroke-width="1.9" stroke-linecap="round" stroke-linejoin="round" filter="url(#d)"><ellipse cx="81.3" cy="198.4" rx="9" ry="3.4" transform="rotate(198.0 81.3 198.4)" fill="url(#g)" fill-opacity=".16"/><ellipse cx="86.8" cy="181.3" rx="9" ry="3.4" transform="rotate(198.0 86.8 181.3)" fill="url(#g)" fill-opacity=".16"/><ellipse cx="66.9" cy="192.4" rx="9" ry="3.4" transform="rotate(207.6 66.9 192.4)" fill="url(#g)" fill-opacity=".16"/><ellipse cx="75.3" cy="176.5" rx="9" ry="3.4" transform="rotate(207.6 75.3 176.5)" fill="url(#g)" fill-opacity=".16"/><ellipse cx="53.8" cy="184.1" rx="9" ry="3.4" transform="rotate(217.2 53.8 184.1)" fill="url(#g)" fill-opacity=".16"/><ellipse cx="64.7" cy="169.7" rx="9" ry="3.4" transform="rotate(217.2 64.7 169.7)" fill="url(#g)" fill-opacity=".16"/><ellipse cx="42.2" cy="173.7" rx="9" ry="3.4" transform="rotate(226.8 42.2 173.7)" fill="url(#g)" fill-opacity=".16"/><ellipse cx="55.3" cy="161.3" rx="9" ry="3.4" transform="rotate(226.8 55.3 161.3)" fill="url(#g)" fill-opacity=".16"/><ellipse cx="32.5" cy="161.5" rx="9" ry="3.4" transform="rotate(236.4 32.5 161.5)" fill="url(#g)" fill-opacity=".16"/><ellipse cx="47.5" cy="151.5" rx="9" ry="3.4" transform="rotate(236.4 47.5 151.5)" fill="url(#g)" fill-opacity=".16"/><ellipse cx="25.0" cy="147.8" rx="9" ry="3.4" transform="rotate(246.0 25.0 147.8)" fill="url(#g)" fill-opacity=".16"/><ellipse cx="41.5" cy="140.5" rx="9" ry="3.4" transform="rotate(246.0 41.5 140.5)" fill="url(#g)" fill-opacity=".16"/><ellipse cx="19.9" cy="133.1" rx="9" ry="3.4" transform="rotate(255.6 19.9 133.1)" fill="url(#g)" fill-opacity=".16"/><ellipse cx="37.4" cy="128.7" rx="9" ry="3.4" transform="rotate(255.6 37.4 128.7)" fill="url(#g)" fill-opacity=".16"/><ellipse cx="17.3" cy="117.8" rx="9" ry="3.4" transform="rotate(265.2 17.3 117.8)" fill="url(#g)" fill-opacity=".16"/><ellipse cx="35.3" cy="116.3" rx="9" ry="3.4" transform="rotate(265.2 35.3 116.3)" fill="url(#g)" fill-opacity=".16"/><ellipse cx="17.3" cy="102.2" rx="9" ry="3.4" transform="rotate(274.8 17.3 102.2)" fill="url(#g)" fill-opacity=".16"/><ellipse cx="35.3" cy="103.7" rx="9" ry="3.4" transform="rotate(274.8 35.3 103.7)" fill="url(#g)" fill-opacity=".16"/><ellipse cx="19.9" cy="86.9" rx="9" ry="3.4" transform="rotate(284.4 19.9 86.9)" fill="url(#g)" fill-opacity=".16"/><ellipse cx="37.4" cy="91.3" rx="9" ry="3.4" transform="rotate(284.4 37.4 91.3)" fill="url(#g)" fill-opacity=".16"/><ellipse cx="25.0" cy="72.2" rx="9" ry="3.4" transform="rotate(294.0 25.0 72.2)" fill="url(#g)" fill-opacity=".16"/><ellipse cx="41.5" cy="79.5" rx="9" ry="3.4" transform="rotate(294.0 41.5 79.5)" fill="url(#g)" fill-opacity=".16"/><ellipse cx="32.5" cy="58.5" rx="9" ry="3.4" transform="rotate(303.6 32.5 58.5)" fill="url(#g)" fill-opacity=".16"/><ellipse cx="47.5" cy="68.5" rx="9" ry="3.4" transform="rotate(303.6 47.5 68.5)" fill="url(#g)" fill-opacity=".16"/><ellipse cx="42.2" cy="46.3" rx="9" ry="3.4" transform="rotate(313.2 42.2 46.3)" fill="url(#g)" fill-opacity=".16"/><ellipse cx="55.3" cy="58.7" rx="9" ry="3.4" transform="rotate(313.2 55.3 58.7)" fill="url(#g)" fill-opacity=".16"/><ellipse cx="53.8" cy="35.9" rx="9" ry="3.4" transform="rotate(322.8 53.8 35.9)" fill="url(#g)" fill-opacity=".16"/><ellipse cx="64.7" cy="50.3" rx="9" ry="3.4" transform="rotate(322.8 64.7 50.3)" fill="url(#g)" fill-opacity=".16"/><ellipse cx="66.9" cy="27.6" rx="9" ry="3.4" transform="rotate(332.4 66.9 27.6)" fill="url(#g)" fill-opacity=".16"/><ellipse cx="75.3" cy="43.5" rx="9" ry="3.4" transform="rotate(332.4 75.3 43.5)" fill="url(#g)" fill-opacity=".16"/><ellipse cx="81.3" cy="21.6" rx="9" ry="3.4" transform="rotate(342.0 81.3 21.6)" fill="url(#g)" fill-opacity=".16"/><ellipse cx="86.8" cy="38.7" rx="9" ry="3.4" transform="rotate(342.0 86.8 38.7)" fill="url(#g)" fill-opacity=".16"/><ellipse cx="138.7" cy="21.6" rx="9" ry="3.4" transform="rotate(18.0 138.7 21.6)" fill="url(#g)" fill-opacity=".16"/><ellipse cx="133.2" cy="38.7" rx="9" ry="3.4" transform="rotate(18.0 133.2 38.7)" fill="url(#g)" fill-opacity=".16"/><ellipse cx="153.1" cy="27.6" rx="9" ry="3.4" transform="rotate(27.6 153.1 27.6)" fill="url(#g)" fill-opacity=".16"/><ellipse cx="144.7" cy="43.5" rx="9" ry="3.4" transform="rotate(27.6 144.7 43.5)" fill="url(#g)" fill-opacity=".16"/><ellipse cx="166.2" cy="35.9" rx="9" ry="3.4" transform="rotate(37.2 166.2 35.9)" fill="url(#g)" fill-opacity=".16"/><ellipse cx="155.3" cy="50.3" rx="9" ry="3.4" transform="rotate(37.2 155.3 50.3)" fill="url(#g)" fill-opacity=".16"/><ellipse cx="177.8" cy="46.3" rx="9" ry="3.4" transform="rotate(46.8 177.8 46.3)" fill="url(#g)" fill-opacity=".16"/><ellipse cx="164.7" cy="58.7" rx="9" ry="3.4" transform="rotate(46.8 164.7 58.7)" fill="url(#g)" fill-opacity=".16"/><ellipse cx="187.5" cy="58.5" rx="9" ry="3.4" transform="rotate(56.4 187.5 58.5)" fill="url(#g)" fill-opacity=".16"/><ellipse cx="172.5" cy="68.5" rx="9" ry="3.4" transform="rotate(56.4 172.5 68.5)" fill="url(#g)" fill-opacity=".16"/><ellipse cx="195.0" cy="72.2" rx="9" ry="3.4" transform="rotate(66.0 195.0 72.2)" fill="url(#g)" fill-opacity=".16"/><ellipse cx="178.5" cy="79.5" rx="9" ry="3.4" transform="rotate(66.0 178.5 79.5)" fill="url(#g)" fill-opacity=".16"/><ellipse cx="200.1" cy="86.9" rx="9" ry="3.4" transform="rotate(75.6 200.1 86.9)" fill="url(#g)" fill-opacity=".16"/><ellipse cx="182.6" cy="91.3" rx="9" ry="3.4" transform="rotate(75.6 182.6 91.3)" fill="url(#g)" fill-opacity=".16"/><ellipse cx="202.7" cy="102.2" rx="9" ry="3.4" transform="rotate(85.2 202.7 102.2)" fill="url(#g)" fill-opacity=".16"/><ellipse cx="184.7" cy="103.7" rx="9" ry="3.4" transform="rotate(85.2 184.7 103.7)" fill="url(#g)" fill-opacity=".16"/><ellipse cx="202.7" cy="117.8" rx="9" ry="3.4" transform="rotate(94.8 202.7 117.8)" fill="url(#g)" fill-opacity=".16"/><ellipse cx="184.7" cy="116.3" rx="9" ry="3.4" transform="rotate(94.8 184.7 116.3)" fill="url(#g)" fill-opacity=".16"/><ellipse cx="200.1" cy="133.1" rx="9" ry="3.4" transform="rotate(104.4 200.1 133.1)" fill="url(#g)" fill-opacity=".16"/><ellipse cx="182.6" cy="128.7" rx="9" ry="3.4" transform="rotate(104.4 182.6 128.7)" fill="url(#g)" fill-opacity=".16"/><ellipse cx="195.0" cy="147.8" rx="9" ry="3.4" transform="rotate(114.0 195.0 147.8)" fill="url(#g)" fill-opacity=".16"/><ellipse cx="178.5" cy="140.5" rx="9" ry="3.4" transform="rotate(114.0 178.5 140.5)" fill="url(#g)" fill-opacity=".16"/><ellipse cx="187.5" cy="161.5" rx="9" ry="3.4" transform="rotate(123.6 187.5 161.5)" fill="url(#g)" fill-opacity=".16"/><ellipse cx="172.5" cy="151.5" rx="9" ry="3.4" transform="rotate(123.6 172.5 151.5)" fill="url(#g)" fill-opacity=".16"/><ellipse cx="177.8" cy="173.7" rx="9" ry="3.4" transform="rotate(133.2 177.8 173.7)" fill="url(#g)" fill-opacity=".16"/><ellipse cx="164.7" cy="161.3" rx="9" ry="3.4" transform="rotate(133.2 164.7 161.3)" fill="url(#g)" fill-opacity=".16"/><ellipse cx="166.2" cy="184.1" rx="9" ry="3.4" transform="rotate(142.8 166.2 184.1)" fill="url(#g)" fill-opacity=".16"/><ellipse cx="155.3" cy="169.7" rx="9" ry="3.4" transform="rotate(142.8 155.3 169.7)" fill="url(#g)" fill-opacity=".16"/><ellipse cx="153.1" cy="192.4" rx="9" ry="3.4" transform="rotate(152.4 153.1 192.4)" fill="url(#g)" fill-opacity=".16"/><ellipse cx="144.7" cy="176.5" rx="9" ry="3.4" transform="rotate(152.4 144.7 176.5)" fill="url(#g)" fill-opacity=".16"/><ellipse cx="138.7" cy="198.4" rx="9" ry="3.4" transform="rotate(162.0 138.7 198.4)" fill="url(#g)" fill-opacity=".16"/><ellipse cx="133.2" cy="181.3" rx="9" ry="3.4" transform="rotate(162.0 133.2 181.3)" fill="url(#g)" fill-opacity=".16"/><ellipse cx="92.0" cy="192.5" rx="4.2" ry="2.4" transform="rotate(0 92.0 192.5)" fill="url(#g)" fill-opacity=".2"/><ellipse cx="97.2" cy="196.3" rx="4.2" ry="2.4" transform="rotate(72 97.2 196.3)" fill="url(#g)" fill-opacity=".2"/><ellipse cx="95.2" cy="202.4" rx="4.2" ry="2.4" transform="rotate(144 95.2 202.4)" fill="url(#g)" fill-opacity=".2"/><ellipse cx="88.8" cy="202.4" rx="4.2" ry="2.4" transform="rotate(216 88.8 202.4)" fill="url(#g)" fill-opacity=".2"/><ellipse cx="86.8" cy="196.3" rx="4.2" ry="2.4" transform="rotate(288 86.8 196.3)" fill="url(#g)" fill-opacity=".2"/><circle cx="92.0" cy="198.0" r="2.4" fill="url(#g)" fill-opacity=".35"/><ellipse cx="128.0" cy="192.5" rx="4.2" ry="2.4" transform="rotate(0 128.0 192.5)" fill="url(#g)" fill-opacity=".2"/><ellipse cx="133.2" cy="196.3" rx="4.2" ry="2.4" transform="rotate(72 133.2 196.3)" fill="url(#g)" fill-opacity=".2"/><ellipse cx="131.2" cy="202.4" rx="4.2" ry="2.4" transform="rotate(144 131.2 202.4)" fill="url(#g)" fill-opacity=".2"/><ellipse cx="124.8" cy="202.4" rx="4.2" ry="2.4" transform="rotate(216 124.8 202.4)" fill="url(#g)" fill-opacity=".2"/><ellipse cx="122.8" cy="196.3" rx="4.2" ry="2.4" transform="rotate(288 122.8 196.3)" fill="url(#g)" fill-opacity=".2"/><circle cx="128.0" cy="198.0" r="2.4" fill="url(#g)" fill-opacity=".35"/><circle cx="110.0" cy="110.0" r="84" opacity=".3"/></g></svg>